<mxfile host="Electron" modified="2024-05-20T13:42:30.898Z" agent="Mozilla/5.0 (Macintosh; Intel Mac OS X 10_15_7) AppleWebKit/537.36 (KHTML, like Gecko) draw.io/23.0.2 Chrome/120.0.6099.109 Electron/28.1.0 Safari/537.36" etag="690Htgh23tuppaG1_0Yf" version="23.0.2" type="device">
  <diagram name="Page-1" id="jM8XYWLxayAVYmSSEH3B">
    <mxGraphModel dx="555" dy="437" grid="1" gridSize="10" guides="1" tooltips="1" connect="1" arrows="1" fold="1" page="1" pageScale="1" pageWidth="1400" pageHeight="700" math="0" shadow="0">
      <root>
        <mxCell id="0" />
        <mxCell id="1" parent="0" />
        <mxCell id="MH7dQqmpBozbEW8p3FuK-43" value="" style="rounded=0;whiteSpace=wrap;html=1;fillColor=#f8cecc;strokeColor=#b85450;fillOpacity=60;" vertex="1" parent="1">
          <mxGeometry x="410" y="220" width="62.28" height="90" as="geometry" />
        </mxCell>
        <mxCell id="MH7dQqmpBozbEW8p3FuK-42" value="" style="rounded=0;whiteSpace=wrap;html=1;fillColor=#f8cecc;strokeColor=#b85450;fillOpacity=60;" vertex="1" parent="1">
          <mxGeometry x="410" y="320" width="62" height="90" as="geometry" />
        </mxCell>
        <mxCell id="MH7dQqmpBozbEW8p3FuK-34" value="" style="rounded=0;whiteSpace=wrap;html=1;fillColor=#dae8fc;strokeColor=#6c8ebf;fillOpacity=60;" vertex="1" parent="1">
          <mxGeometry x="220" y="294.1" width="113" height="67.9" as="geometry" />
        </mxCell>
        <mxCell id="MH7dQqmpBozbEW8p3FuK-23" style="edgeStyle=orthogonalEdgeStyle;rounded=0;orthogonalLoop=1;jettySize=auto;html=1;entryX=0;entryY=0.5;entryDx=0;entryDy=0;endArrow=classicThin;endFill=1;" edge="1" parent="1" source="MH7dQqmpBozbEW8p3FuK-1" target="MH7dQqmpBozbEW8p3FuK-9">
          <mxGeometry relative="1" as="geometry">
            <Array as="points">
              <mxPoint x="520" y="350" />
              <mxPoint x="520" y="320" />
            </Array>
          </mxGeometry>
        </mxCell>
        <mxCell id="MH7dQqmpBozbEW8p3FuK-1" value="" style="shape=image;verticalLabelPosition=bottom;labelBackgroundColor=default;verticalAlign=top;aspect=fixed;imageAspect=0;image=data:image/png,iVBORw0KGgoAAAANSUhEUgAAAPoAAAD6CAYAAACI7Fo9AAAACXBIWXMAAA7EAAAOxAGVKw4bAAAJBUlEQVR4nO3dscudVx0H8PuGDCKkNlSLU4YqCnUojikv2EFC/4CkXRxKCYJDhxQrtMM7hGKglWRIJ4nBwcFqZqmhlAwhnV0EpXF4h1KKNZrQ4tTXRbBwfsVfcp7ce5Pv5zMe3vs8z73hmwNfznnOzsHqYAU83A5t+gGA+0/QIYCgQwBBhwCCDgEEHQIIOgQQdAgg6BBA0CGAoEMAQYcAgg4BBB0CCDoEEHQIIOgQQNAhgKBDAEGHAIIOAQQdAgg6BBB0CCDoEEDQIYCgQwBBhwCCDgEOb/oB+P9e+ubXH7gjby9+9PedTT8D/2NGhwCCDgEEHQIIOgRQxm1Qt2Q7ceLEMHbs2LF7vu/+/v59v95LV3vfTWm3HmZ0CCDoEEDQIYCgQ4Cdg9UDt+jqgVQVb92SbemirKt73+49qr+7evXqMKagW54ZHQIIOgQQdAgg6BBAGXcfzBRvT+3uDmO3ihKrKraqsd3iet2VcdevX29d72jx2ZlnVtAtz4wOAQQdAgg6BBB0CKCMm7RNxVtVYlVOnz49jF26dKn12eq7Kei2nxkdAgg6BBB0CCDoEMA74+6D7lbTbjnVLcq6Zq5XlWLdEvDs2bPD2MwWXPrM6BBA0CGAoEMAQYcAyri70F0F19Ut3i6+9/owdqf47JGi2Nqmv3vthb1hrCroKtXvXB0SYbVczYwOAQQdAgg6BBB0CKCMW5Nu8fbzX/94GNumQq37d5Xqu3ULupmDKDCjQwRBhwCCDgEEHQIo49akW7xVtr14mynoWA8zOgQQdAgg6BBA0CGAMm7LzLzPrTqYYelCbenn666Wm9kOjBkdIgg6BBB0CCDoEEAZt0FVsVUVVuu4Xrd429TzdQ+JoGZGhwCCDgEEHQIIOgTYOVgN78DnS1QHOFS6BVNVTr310Sd391BfcPudV+/5s12PPHvunj/bfb7XXvjlMPbE7jgn/e3658OYAxxqZnQIIOgQQNAhgKBDACvj7kK3EKoOGzhWbAMtTxLdG7doVgXdwcHYC+7sjD3UTEFXFW/d+167dm283jPPDGPnT35jGKt+52qb6tVVsVruyjiEGR0iCDoEEHQIIOgQQBk3qX7n2biya2Z7569u/GMYqwqwdajuWz3fD44fbV2v+l2qFYNVmUmfGR0CCDoEEHQIIOgQQBn3gKoKsH+d/+4wNnOAQ7Vq7Wsv/6X7iC0zB0LQZ0aHAIIOAQQdAgg6BPDOuC/RfT9cpdpSubu7O4ztFVtSqy2aZ37/8TB2+f1brWd58dG3W39XufzP53v3KFbBXTj1eOuz5fbT5mEN3hnXZ0aHAIIOAQQdAgg6BIhbGbeOQxhmnKneI/fpH4ahFx8dV7ctrV3kfTquqqu+R7Uir3q/XkXxNseMDgEEHQIIOgQQdAjwQK6Mm1m11i3ZuiVRpVrZVa0Aq96D1i33Lr73+t0/2H9dKFbklSVgU1WyVarftPqtvv3VH7b+ThnXZ0aHAIIOAQQdAgg6BNiqMm7pVWuVbiFUlWeV7sECMyvoqkMiKtV735bWLd6631fxth5mdAgg6BBA0CGAoEOAjZVxVfE2s2qt+56xSnfV2oyZlXYffPZu6++W/h4zv3O1rbT7fjjF2/LM6BBA0CGAoEMAQYcAW//OuPa2zaLAqQq/dRRWXdV9q+tVq8cqM4VkV3clW0XxtjlmdAgg6BBA0CGAoEOAtayM666Cq4q3blmzTcVb9x7V9c4d/v5dPdMXvf/nnw1jdx773T1f78gnzw1jx598456vd+PyK4q3DTGjQwBBhwCCDgEEHQJsrIyrKN7qkrL67O7uU8PY3t6brWepSrtuyXb27CvD2PXrfxrGuodTKOjWw4wOAQQdAgg6BBB0CLCxbapLb0/c9uKt/OyH1T2Otu5RFWBVUVYVdD86++owdvO34z1mirfu92A9zOgQQNAhgKBDAEGHAFv/zriZgx4qmyrefvLhY8PYzIEV1T2qoqx7vdVqLM+6xVv9fOP1qu/79OrN4d/XarnlmdEhgKBDAEGHAIIOAdZSxm37S/qXLt7KsuvwWMZVuoVapdq6Wh2aUD3zzRu96+3v32o9S7fIYz3M6BBA0CGAoEMAQYcAW7Uybh2r4NZRvHXfBVetHqveqzbzG6xD9/1w1bZXq+XWw4wOAQQdAgg6BBB0CNAu46qibGbFW/cQhq5NFW9d1Wdnrrepd7JV951ZLcd6mNEhgKBDAEGHAIIOAaZWxnVPSa0sffrp0p+dKcoq1ZbPSrWt9GHhN9gcMzoEEHQIIOgQQNAhQLuMq1bBLb2tdB2WLtmq4ujU7rvD2N7evd9j6VV1Mwc4zKhOdq2cul393bjFlT4zOgQQdAgg6BBA0CHA1Mq4sqC71Fstt3RpN1NOzazEqlb4ffDZWMb98blxK+eRYkXe07+4M4xVK/e621SXPsCh0t2meuOnR4axO8W/W/G6OSaZ0SGAoEMAQYcAgg4BFj/AofseuW5ptw7tZ57YlluVhd9rbq2tDkOY8Zu9c8PY8SffGMa6K9lmLL1SkZoZHQIIOgQQdAgg6BBg52C1NZ3YVukeMNFdVffE7vh/arU68JFn3x4//JXxvoeKIu/zotiq/q6re73q71b/Hn+X2+88P4xVReOZKx87OXVhZnQIIOgQQNAhgKBDgIe6jJtZydY1c6LshZOPt57v5Svj9s5D3xmLvG4p1tYtAf86FmrnT47bbSuKt/Uwo0MAQYcAgg4BBB0CPNRl3MNiZ/Wt4R9ppow7WN0cCrDqHjNlXHUPNseMDgEEHQIIOgQQdAigjHsA7Kx2Fv1HOlgdFGXc/b8Hm2NGhwCCDgEEHQIIOgQQdAgg6BBA0CGAoEMAQYcAi5+mypylV6htSvU9rJbbHDM6BBB0CCDoEEDQIYAyboO6xdux5omo+9U74xY28ywKus0xo0MAQYcAgg4BBB0CKOPug5nVbd2ya9tV36Nb0FWUdnPM6BBA0CGAoEMAQYcADnBYk23afrqOAxxmKN6WZ0aHAIIOAQQdAgg6BFDGQQAzOgQQdAgg6BBA0CGAoEMAQYcAgg4BBB0CCDoEEHQIIOgQQNAhgKBDAEGHAP8B+W9Amp9fcUMAAAAASUVORK5CYII=;" vertex="1" parent="1">
          <mxGeometry x="422.5" y="330" width="40" height="40" as="geometry" />
        </mxCell>
        <mxCell id="MH7dQqmpBozbEW8p3FuK-2" value="&lt;span style=&quot;font-size: 9px;&quot;&gt;Crypto Market Researcher&lt;/span&gt;" style="text;html=1;strokeColor=none;fillColor=none;align=center;verticalAlign=middle;whiteSpace=wrap;rounded=0;fontSize=9;" vertex="1" parent="1">
          <mxGeometry x="410.44" y="380" width="64.12" height="10" as="geometry" />
        </mxCell>
        <mxCell id="MH7dQqmpBozbEW8p3FuK-21" style="edgeStyle=orthogonalEdgeStyle;rounded=0;orthogonalLoop=1;jettySize=auto;html=1;endArrow=classicThin;endFill=1;" edge="1" parent="1" source="MH7dQqmpBozbEW8p3FuK-3" target="MH7dQqmpBozbEW8p3FuK-9">
          <mxGeometry relative="1" as="geometry">
            <Array as="points">
              <mxPoint x="520" y="290" />
              <mxPoint x="520" y="320" />
            </Array>
          </mxGeometry>
        </mxCell>
        <mxCell id="MH7dQqmpBozbEW8p3FuK-3" value="" style="shape=image;verticalLabelPosition=bottom;labelBackgroundColor=default;verticalAlign=top;aspect=fixed;imageAspect=0;image=data:image/png,iVBORw0KGgoAAAANSUhEUgAAAPoAAAD6CAYAAACI7Fo9AAAACXBIWXMAAA7EAAAOxAGVKw4bAAAIMUlEQVR4nO3dsYtlVx0H8DeSKvkbMkVAjOWmExdmFTKIqEWaxSVIwNkgLCSdAZEtthBit4ERyY4Ygqxsk0YJYQNmA2ObVGIkaDFpbZNKGEuF81ty3js39773vp9PeXj3vXNn+HLgy7n3HFyuLlfAfvva0hMAvnqCDgEEHQIIOgQQdAgg6BBA0CGAoEMAQYcAgg4BBB0CCDoEEHQIIOgQQNAhgKBDAEGHAIIOAQQdAgg6BBB0CCDoEEDQIYCgQwBBhwCCDgEEHQIIOgQQdAjwxNIT4MsdrA527sjby9XlwdJz4H+s6BBA0CGAoEMAQYcAB5ernet59sYulmxTU9rNw4oOAQQdAgg6BBB0CKCMm8lI8XZ4eLjx715cXGx8be/vjvxGRUE3PSs6BBB0CCDoEEDQIYAy7iswdfFWjZ2fn2/8fVV5NvK53mtHSjsF3RgrOgQQdAgg6BBA0CGAd8YNmrp46y3AevUWYCOfm7rwq1R/ZwVdPys6BBB0CCDoEEDQIYCdcYN6y7ipi7epHw0dMTLnkYJOGdfPig4BBB0CCDoEEHQIoIxbwxwHLgyVU//4UzP2RXHtk8Vv9H7u4Bs/7JrLyH2MUNDVrOgQQNAhgKBDAEGHAMq4NUxdxm178baLBZ0yrmZFhwCCDgEEHQIIOgRQxq1hjvfDVbapeNv2gk4ZV7OiQwBBhwCCDgEEHQIo49Yw9fvhKnevX1lvUv/n5OSkGZu6eDs7O9twdqvVqw8+7vqc98hNz4oOAQQdAgg6BBB0COA01QVVxVtVqPWqirLe7+st3kbmt1q139db0DHGig4BBB0CCDoEEHQIYGfcGqbeGff5+6fN2FPP39pgZo//vqlNPb/q++yMm54VHQIIOgQQdAgg6BBAGbeGN64/1/yxpt7Z9ejRo2bs2rVrzdjlZft/Ozhoe6iRgq4qynp/t/c+RlQ7C1958JEyrmBFhwCCDgEEHQIIOgTwmOpMend7HR0dNWOn//xRM1YVYHOofrea39Ez7X1U5jhhFSs6RBB0CCDoEEDQIYAybtAcj15WqgLsP7/4rBkbOcCh2nn2xK+e7p1il5FHekcOk0hjRYcAgg4BBB0CCDoE8JjqoKnfI/f3373WjD1740Yz9sn9++3nrl5txkZOTq0+98n5+cbz++ZPX2/GvB9uHlZ0CCDoEEDQIYCgQwBl3KDeMq5S7fbqLsAGirdeQwVd5/xGDoRQxvWzokMAQYcAgg4BBB0CeEx1QdUOsKo6q4qtSm/x9sbt283YK3fubPx91e62qnjzLrjlWNEhgKBDAEGHAIIOAeyMW8PILrhe1XvaTk5Ouq4d2QXXqyrZKtX73KY+ebZit1zNig4BBB0CCDoEEHQIoIxbQ1XGzXEaaFXQVY6Pj5uxan69qvt4+PBh17VTF2+9f2dlXM2KDgEEHQIIOgQQdAjgMdXHmGMX3NXi8dPz4v1rvcXW3eEZfbmRkq33fkdU/zcFnRUdIgg6BBB0CCDoEEAZtxo7EXVE7w66l77+Ytfn/v3Ll0em0+Wlj97s+txbn/6hGRvZMVi+X69zt5yCzooOEQQdAgg6BBB0CBBXxk1dvE1dMFWqx0+rXWa3X2gPZqg8/U5b2n32Ql/Jdqc46KHa3TZ1GddrjseGd5EVHQIIOgQQdAgg6BBgr98Zt03FW6+LP/6r63ersbKgK05O/fbPj5qxv/76w2ast3ir/n7l2I+facamNlLG7fNuOSs6BBB0CCDoEEDQIUDczrhtKt56C6v7t97uurb3/WvV6axVGddbvJXF4GvXNr52anbLWdEhgqBDAEGHAIIOAfamjBs5cGGpYqb3PWg3Tn/SjJ2//qgZq3bGVaef9t5v9X3VtdX8lirAev+maazoEEDQIYCgQwBBhwB7U8ZVliqEqgMXqt1o2/Qo59TKR2s7H8E9Oztrxqp30E1tnw96sKJDAEGHAIIOAQQdAux1GTdi6iKv91HOSrULbqndXuXjsdUuveox1c5HcJmeFR0CCDoEEHQIIOgQQBk3k+qRz9VpO1TtqttF1X1Uu9t6H61ljBUdAgg6BBB0CCDoEGCvy7il3gV35bm/NWPVqaa9hdXxxXEzNse99R4IUanuo7rf6u9S/f3e+nTjqbCyokMEQYcAgg4BBB0C7HUZt01Of/OtZuzJ6lHTH7RD5bvlOh9THdllVu7mK1TFYFW8/f7P15uxL8p3xrVlHGOs6BBA0CGAoEMAQYcAyrjHmHrnWfV9z3YWatWBBnOodq1NbakTVtNY0SGAoEMAQYcAgg4BDi5XzQGSO6k6CbNSnY7Ze+2Iu9evNGPVCatPPX+r6/vu3bs3PKep3Lx5s+tzn7/fviSvKhpfffDx8Jw2sS8np1as6BBA0CGAoEMAQYcAe1PGVaqSbakyrlIVdJWlyqkRS93byP9XGQfsNEGHAIIOAQQdAijj1riW7aeMq1nRIYCgQwBBhwCCDgH2uoyb2tQF3Tbt0ttFI8XqPhdvFSs6BBB0CCDoEEDQIYAybtBIeWaXXr+08mxqVnQIIOgQQNAhgKBDAKepDpq6UEsr3pRs87CiQwBBhwCCDgEEHQIo42ZSlU7fLYq378wwlw+KsTl+l+VY0SGAoEMAQYcAgg4BlHFb5s7PXt742ouLi2bs7N33mrHeYvDk+99rrj08PNx4frd/++bG1zLGig4BBB0CCDoEEHQI4J1xC6oKsDn8pbOMW2ouTM+KDgEEHQIIOgQQdAigjIMAVnQIIOgQQNAhgKBDAEGHAIIOAQQdAgg6BBB0CCDoEEDQIYCgQwBBhwCCDgH+C5NluP6jnBV0AAAAAElFTkSuQmCC;" vertex="1" parent="1">
          <mxGeometry x="422.5" y="270" width="40" height="40" as="geometry" />
        </mxCell>
        <mxCell id="MH7dQqmpBozbEW8p3FuK-4" value="&lt;span style=&quot;font-size: 9px;&quot;&gt;Crypto Selection Researcher&lt;br&gt;&lt;/span&gt;" style="text;html=1;strokeColor=none;fillColor=none;align=center;verticalAlign=middle;whiteSpace=wrap;rounded=0;fontSize=9;" vertex="1" parent="1">
          <mxGeometry x="407" y="250" width="63" height="10" as="geometry" />
        </mxCell>
        <mxCell id="MH7dQqmpBozbEW8p3FuK-26" style="edgeStyle=orthogonalEdgeStyle;rounded=0;orthogonalLoop=1;jettySize=auto;html=1;endArrow=classicThin;endFill=1;" edge="1" parent="1" source="MH7dQqmpBozbEW8p3FuK-9" target="MH7dQqmpBozbEW8p3FuK-24">
          <mxGeometry relative="1" as="geometry" />
        </mxCell>
        <mxCell id="MH7dQqmpBozbEW8p3FuK-9" value="" style="shape=image;verticalLabelPosition=bottom;labelBackgroundColor=default;verticalAlign=top;aspect=fixed;imageAspect=0;image=data:image/png,iVBORw0KGgoAAAANSUhEUgAAAPoAAAD6CAYAAACI7Fo9AAAACXBIWXMAAA7EAAAOxAGVKw4bAAAIg0lEQVR4nO3dsYsc5xkG8NlcijR2/oIsBNwEI5MikBQLEkdQFyI3Ka5ycUXAhYtAECkUosKIQBJcCFJc4UqBNFJwZREOFVukNBHGjcBwfYrYTZrj0gRSfK/wK83crnTP71d+7N7MzvHwwcM7M6uL6WICrrZv7fsEgMsn6BBA0CGAoEMAQYcAgg4BBB0CCDoEEHQIIOgQQNAhgKBDAEGHAIIOAQQdAgg6BBB0CCDoEEDQIYCgQwBBhwCCDgEEHQIIOgQQdAgg6BBA0CGAoEMAQYcA3973CfDNVtOt1+6VtxfTo9W+z4H/s6NDAEGHAIIOAQQdAijj9qhbsm2mm8Pa+mDdOsZ63ftc5ezsrPe58/Fz3d+mtNsNOzoEEHQIIOgQQNAhwOpieu2Grl5LVTnVLdnmFGr7UhV5VWm3nR4Pawq65dnRIYCgQwBBhwCCDgGUcZcgrXjrUtDtjx0dAgg6BBB0CCDoEMBtqjuSVrxVyt9b3Ql7fumnEseODgEEHQIIOgQQdAigjJupOwXXVRVW1URZ9bntdrvoMSqbzab13VnHKK5fdZ1Ny/XZ0SGAoEMAQYcAgg4BlHGXYM7LFeYUb9Utn6XiY93vVsdduqArr59puVns6BBA0CGAoEMAQYcAyrgXsPQUXKVdYjWftVaaUWxtznu/t/s72sc1LTeLHR0CCDoEEHQIIOgQQBl3CaqirJr26r7QoFIVbw/fe9Y6xpyJvHc/Hs/laDoa/17xO7q3qbYn/Gizo0MAQYcAgg4BBB0CKOMuQVWUVRNl66m4/bT4blV2VZYu3ury7K3WuZTXYCpuZ21O+C09gZjGjg4BBB0CCDoEEHQIoIzbo/akWPNzV/kYzGNHhwCCDgEEHQIIOgRQxu1I+Ty38tltfxtW7n3Z+9zJ6fip48M3vunUnuvk9OvWcbvn98BLGPbGjg4BBB0CCDoEEHQIoIx7AdeKgml8t2j/u0+nnw9rT548GdZu3PjTsHZxMby7YFqtln13wdNirT7urWGt+zu616UqM6vvUrOjQwBBhwCCDgEEHQIo42b66HAcR/vg9HBYq4qtanrs+vVHw9rRwTihtnTx1lUd9+jgk2Ht+vXrxbdvDCv1dRlV17maBKRmR4cAgg4BBB0CCDoEUMZdgnraa1lVAVZZr28Pa90XOBwd3HvxE1tAPfH28rfbYkeHCIIOAQQdAgg6BFhdTONth0zTaro1XJjqjZ7/nt5v/b2bxUtI//BsXLtWfLcq8qrP3X3v7da5zHHn48+Hte75VZ/7VXFdHhfXpfLd6f6wVt3OejE92s8Y4SvEjg4BBB0CCDoEEHQIoIx7jqqM66omu6oybr0ep72qCbVqrZpu227HomyzefmCrvv3uudXr4234FZlXPUcuS5lnB0dIgg6BBB0CCDoEMBtqlO/eKtKneq71cTW42fjBN3NqXpb6VhYzVFNsnVVBWJlu+29xqJbvFXXb2pOvFX/j2otraCzo0MAQYcAgg4BBB0CxE3GLV28HR0cD989O+8Vat1bXI8Pe89LqybUllZNt1VOTquicVQXb6P1wfjbHpyfDGvd/1vlKhd0dnQIIOgQQNAhgKBDgLjJuH0VLlWZdHbee+bZyWn1QoPRzbfGKbjqVtiu7iRbpbqttHrmXn1dlp0OvMolW5cdHQIIOgQQdAgg6BAgrozrWnoKbo7289KeFaXds96E2uLnsrDqOlf/j9W5W1IrdnQIIOgQQNAhgKBDAGXcJaimvfp6U3CVg7//dcZxm376ixlfHifjKruYlktjR4cAgg4BBB0CCDoEiHtmXGXpKbhumbRtPjOuPEbzDaaVHxal3WfNkm3OcSub4plxc8q4Oc+Wu8rs6BBA0CGAoEMAQYcAJuNeQPU8t6q0m6NbdlVr3e9+9viPi57L0t8t/16zZDualv1/XBV2dAgg6BBA0CGAoEMAk3FT/22bldvfvzusVaXTg/Oftf7e0iVW5e5/xlLxznd6t5B2zfkdRweftP7evS/vvPiJ/Y/JOODKEXQIIOgQQNAhgMm456jKmm5pN+f5ZrOmx5oF2Ha7XfTvVeb8jur6rafec/jm/N+uMjs6BBB0CCDoEEDQIYAybqay7Go+C24XU3CVzWYzrI2zcstrl4XF9VufjdNy9NnRIYCgQwBBhwCCDgGUcdP+bllcegpuF/Y1LTdH2i2pFTs6BBB0CCDoEEDQIYAybqbqJQKVbnm2r8JqF+Zcg+51pmZHhwCCDgEEHQIIOgRQxl2CD9+/Paz95v69RY+xi9Ju6WN0/159/b5Y9FzS2NEhgKBDAEGHAIIOAZRxM1W3QL5zfzW8MKAsmE6Lgq7ZOc2ZMuuWYotP8/1gXPrwcLwufymKy4vpwosZZrCjQwBBhwCCDgEEHQIo43bkX5+OBdPDzdvD2rtffN76e6/jZNzDH4+/d1tcF5ZnR4cAgg4BBB0CCDoEWF1Mhot24Z1pnJY7Pnxj+NwHp1/3/uCvfzL7nBbz+3+0PvZR8XtPit/7z2IKjnns6BBA0CGAoEMAQYcAyrg9qgq6ytPLPpFLcK35OcXbbtjRIYCgQwBBhwCCDgGUca+BVbO066qfv3b5x2B/7OgQQNAhgKBDAEGHAIIOAQQdAgg6BBB0CCDoEEDQIYCgQwBBhwCCDgEEHQJ4m+orZunbRfel+h1uXd0fOzoEEHQIIOgQQNAhgDJuj7rF23q9HtbOzs6GtT+/+bth7eSrk9a5/Gj63rB2/ObxsPbLr3770uenoNsfOzoEEHQIIOgQQNAhgDLuFVMVW6+jbkHHbtjRIYCgQwBBhwCCDgG8TXWP9nVL6i7epjrnXFieHR0CCDoEEHQIIOgQQBkHAezoEEDQIYCgQwBBhwCCDgEEHQIIOgQQdAgg6BBA0CGAoEMAQYcAgg4BBB0C/Be+lmekVPwPUwAAAABJRU5ErkJggg==;" vertex="1" parent="1">
          <mxGeometry x="547.25" y="300" width="40" height="40" as="geometry" />
        </mxCell>
        <mxCell id="MH7dQqmpBozbEW8p3FuK-10" value="&lt;span style=&quot;font-size: 9px;&quot;&gt;Crypto Portfolio Constructor&lt;br&gt;&lt;/span&gt;" style="text;html=1;strokeColor=none;fillColor=none;align=center;verticalAlign=middle;whiteSpace=wrap;rounded=0;fontSize=9;" vertex="1" parent="1">
          <mxGeometry x="529.9699999999999" y="280" width="74.57" height="10" as="geometry" />
        </mxCell>
        <mxCell id="MH7dQqmpBozbEW8p3FuK-16" value="Crypto-Cash&lt;br&gt;Allocation" style="edgeLabel;html=1;align=center;verticalAlign=middle;resizable=0;points=[];fontSize=8;" vertex="1" connectable="0" parent="1">
          <mxGeometry x="496.0044827586207" y="349.9999999999999" as="geometry" />
        </mxCell>
        <mxCell id="MH7dQqmpBozbEW8p3FuK-18" value="Selected &lt;br&gt;Crypto" style="edgeLabel;html=1;align=center;verticalAlign=middle;resizable=0;points=[];fontSize=8;" vertex="1" connectable="0" parent="1">
          <mxGeometry x="502.0044827586207" y="289.9999999999999" as="geometry" />
        </mxCell>
        <mxCell id="MH7dQqmpBozbEW8p3FuK-24" value="" style="shadow=0;dashed=0;html=1;strokeColor=none;fillColor=#1A1A1A;labelPosition=center;verticalLabelPosition=bottom;verticalAlign=top;align=center;outlineConnect=0;shape=mxgraph.veeam.2d.report;" vertex="1" parent="1">
          <mxGeometry x="632.75" y="302.1" width="25.25" height="35.8" as="geometry" />
        </mxCell>
        <mxCell id="MH7dQqmpBozbEW8p3FuK-25" value="&lt;span style=&quot;font-size: 9px;&quot;&gt;Portfolio Report&lt;/span&gt;" style="text;html=1;strokeColor=none;fillColor=none;align=center;verticalAlign=middle;whiteSpace=wrap;rounded=0;fontSize=9;" vertex="1" parent="1">
          <mxGeometry x="614.62" y="345" width="61.5" height="10" as="geometry" />
        </mxCell>
        <mxCell id="MH7dQqmpBozbEW8p3FuK-30" style="edgeStyle=orthogonalEdgeStyle;rounded=0;orthogonalLoop=1;jettySize=auto;html=1;entryX=0;entryY=0.5;entryDx=0;entryDy=0;endArrow=classicThin;endFill=1;" edge="1" parent="1" source="MH7dQqmpBozbEW8p3FuK-28" target="MH7dQqmpBozbEW8p3FuK-3">
          <mxGeometry relative="1" as="geometry">
            <Array as="points">
              <mxPoint x="370" y="320" />
              <mxPoint x="370" y="290" />
            </Array>
          </mxGeometry>
        </mxCell>
        <mxCell id="MH7dQqmpBozbEW8p3FuK-31" style="edgeStyle=orthogonalEdgeStyle;rounded=0;orthogonalLoop=1;jettySize=auto;html=1;endArrow=classicThin;endFill=1;" edge="1" parent="1" source="MH7dQqmpBozbEW8p3FuK-28" target="MH7dQqmpBozbEW8p3FuK-1">
          <mxGeometry relative="1" as="geometry">
            <Array as="points">
              <mxPoint x="370" y="320" />
              <mxPoint x="370" y="350" />
            </Array>
          </mxGeometry>
        </mxCell>
        <mxCell id="MH7dQqmpBozbEW8p3FuK-28" value="" style="shape=image;verticalLabelPosition=bottom;labelBackgroundColor=default;verticalAlign=top;aspect=fixed;imageAspect=0;image=data:image/png,iVBORw0KGgoAAAANSUhEUgAAAPoAAAD6CAYAAACI7Fo9AAAACXBIWXMAAA7EAAAOxAGVKw4bAAAH8UlEQVR4nO3dz4tkVxkG4KoQRslA/oFgb0YYstFkEMZFw4CYwU1AXThbIQVqD4zIgBoXHdKLRAMTycB0FEpwOy5EyEY74qoFV/nhJkZcFbhzFUjQIJRLxfOJZ+rerls97/MsD111T93m5cDLuffM17P1DHi4PTL1BICzJ+gQQNAhgKBDAEGHAIIOAQQdAgg6BBB0CCDoEEDQIYCgQwBBhwCCDgEEHQIIOgQQdAgg6BBA0CGAoEMAQYcAgg4BBB0CCDoEEHQIIOgQQNAhgKBDAEGHAI9OPQH+v+P9+bk78vbgdD2feg78mxUdAgg6BBB0CCDoEEAZN6Hekm2xWDRjF/b2Nr7ux6tVM7Yqxj69v7/x9x3P+n6b0m47rOgQQNAhgKBDAEGHAMq4Lekt3q5fv775RToLugvVR4uxqmS7UBR01fdVBWJV+FWlnYJufFZ0CCDoEEDQIYCgQ4D5enbunoDceVXxdnB01P5hVZ4VhVVVilXK3XK9O+g6r1uVcWPP+fjwsBlT0A1jRYcAgg4BBB0CCDoEsDNuoN4db385PW3GysdAi3Kq2nlWlV1DrlEpH13t+uT4yoJTQdfNig4BBB0CCDoEEHQIoIw7A9UuuEHl2dg6d7KdnJw0Y73zWy6XzVjvfake1a3mQj8rOgQQdAgg6BBA0CGAx1QfQO8uuN7SqSqsGHb/7JarWdEhgKBDAEGHAIIOAeyMG6g6qKB651nl6y/c2/i6jxWPmn5UFFZT/V2vn794sxlTXI7Pig4BBB0CCDoEEHQIoIwbqHqvWlXQDSmTdr14G7ugq+6VR1eHsaJDAEGHAIIOAQQdAijjzkBVJvXughtS2lUl4NiF2tjzq+5LtVuOYazoEEDQIYCgQwBBhwDeGfcAet8Zd7M9l2EyH765+aOwF5/ZnVLsXue5Ft4ZV7OiQwBBhwCCDgEEHQLYGTfQP594uhh9uxlZr6cpPefzzbupXZpzdZ8f/Wt7n6lZ0SGAoEMAQYcAgg4BlHEPoCqEqneZze63JdHHf/59M/b8T3/ZjB0cHDRjx8fHzdidO3easdu3b7dzKVS75apdcNX39V6393e8/I2v/s95/qf6nXFdH2VmRYcIgg4BBB0CCDoEUMYNtFe8a63Xl596ohm7dOlSM3blkeeasd7ibWzVdav5Vb+j+r29htxnrOgQQdAhgKBDAEGHAMq4M/DajXYH3Scuty89+8f7m79crirA9j7z62bs1Y2vUJdnqz9+aePvu3r1ajNW3Zfq/jGMFR0CCDoEEHQIIOgQwAEOA929caXrBlaPWT753I9Gn89/W7//xsafnV9+dsSZ1N772feasZPO509v3X/LYQ2drOgQQNAhgKBDAEGHAHbGDVQVQr0FXfXutseqxzGrsdWq5xKzu4eHXX9X6S7yOuf3UTG26vwdirdhrOgQQNAhgKBDAEGHAHbGbUlV0FW75ap3o5UFXXWNonj77Ld+3PXZyruvf6cZu3V01IxVJVulKt6qXXCKt/FZ0SGAoEMAQYcAgg4B7IzbknIH3axvB91isdj4uteuXdv4s+++3o71Fm/L5bLr7xRv22FFhwCCDgEEHQIIOgSwM+4cGPJeut73r439fUq23WJFhwCCDgEEHQIIOgRQxj1Eeku7IZRs55MVHQIIOgQQdAgg6BBAGbdj5rP5xv+Qp377izGnUnrni1/b+LPr2VqRNxErOgQQdAgg6BBA0CGAMm5CQ4q36qCH3pNJq9Kut2Qbct2Kgm47rOgQQNAhgKBDAEGHAA5w2DG9ZVc11vvZd05eHXUuY3+W8VnRIYCgQwBBhwCCDgHsjNuS3l1w2yixjv7eHsJw+Mn2sIYhhvwOu+XGZ0WHAIIOAQQdAgg6BLAzbscMKd56C7DT09NRv69iF9xusaJDAEGHAIIOAQQdAijjzsAu7YKr7O/vN2PtXrnx9f7e6v7ZLTeMFR0CCDoEEHQIIOgQQBk3obF3wW2D3XLnkxUdAgg6BBB0CCDoEEAZtyW95dnDXFi5B9OxokMAQYcAgg4BBB0CKOPOwEs3v9+M/eDeD0e9xjYKq7Gv0ft91f2b3Rt1KnGs6BBA0CGAoEMAQYcAyrgzcPFvv2nGyoLud0VB917fNYbsMustxUbfyfZkO/TSF9r7Ut2/2ezlvmtQsqJDAEGHAIIOAQQdAijjtuQrV9ozHZ6/9UYzNr/8bNf3ncedcetftb/3T8XJrifbOE0ijBUdAgg6BBB0CCDoEGC+nnUd/MlAd2+0bdxisWj+7uIzN/u+8LufHzyn0bzyh64/+/DN9lnT5XLZjN26/5aTU0dmRYcAgg4BBB0CCDoEUMZNqCroKt++//ZZT2V0r914uuvvFG/bYUWHAIIOAQQdAgg6BFDGnQPz2XzUf9J6tm4KsG1cg+lY0SGAoEMAQYcAgg4BBB0CCDoEEHQIIOgQQNAhgKBDAEGHAIIOAQQdAgg6BHCa6o4Z+3HRqVS/w6Or07GiQwBBhwCCDgEEHQIo4ybUW7zt7e01Y6vVqhn7yeMvNmPLD9rTSiufm32qGVs83p72+s0PXth4fgq66VjRIYCgQwBBhwCCDgGUcTumKrbOo96Cju2wokMAQYcAgg4BBB0COE11QlM9krqN01SHzIXxWdEhgKBDAEGHAIIOAZRxEMCKDgEEHQIIOgQQdAgg6BBA0CGAoEMAQYcAgg4BBB0CCDoEEHQIIOgQQNAhwL8A7VYi/CpYn4cAAAAASUVORK5CYII=;" vertex="1" parent="1">
          <mxGeometry x="288.49" y="300" width="40" height="40" as="geometry" />
        </mxCell>
        <mxCell id="MH7dQqmpBozbEW8p3FuK-29" value="&lt;span style=&quot;font-size: 9px;&quot;&gt;Database Manager&lt;br&gt;&lt;/span&gt;" style="text;html=1;strokeColor=none;fillColor=none;align=center;verticalAlign=middle;whiteSpace=wrap;rounded=0;fontSize=9;" vertex="1" parent="1">
          <mxGeometry x="281.72" y="345" width="53.53" height="10" as="geometry" />
        </mxCell>
        <mxCell id="MH7dQqmpBozbEW8p3FuK-32" value="Crypto&lt;br&gt;Data" style="edgeLabel;html=1;align=center;verticalAlign=middle;resizable=0;points=[];fontSize=8;" vertex="1" connectable="0" parent="1">
          <mxGeometry x="393.2544827586207" y="289.9999999999999" as="geometry" />
        </mxCell>
        <mxCell id="MH7dQqmpBozbEW8p3FuK-33" value="Market&lt;br&gt;Data" style="edgeLabel;html=1;align=center;verticalAlign=middle;resizable=0;points=[];fontSize=8;" vertex="1" connectable="0" parent="1">
          <mxGeometry x="393.2544827586207" y="349.9999999999999" as="geometry" />
        </mxCell>
        <mxCell id="MH7dQqmpBozbEW8p3FuK-40" style="edgeStyle=orthogonalEdgeStyle;rounded=0;orthogonalLoop=1;jettySize=auto;html=1;exitX=1;exitY=0.5;exitDx=0;exitDy=0;endArrow=openThin;endFill=0;startArrow=openThin;startFill=0;" edge="1" parent="1" source="MH7dQqmpBozbEW8p3FuK-35" target="MH7dQqmpBozbEW8p3FuK-28">
          <mxGeometry relative="1" as="geometry" />
        </mxCell>
        <mxCell id="MH7dQqmpBozbEW8p3FuK-35" value="" style="shape=datastore;whiteSpace=wrap;html=1;" vertex="1" parent="1">
          <mxGeometry x="235.75" y="305" width="20" height="30" as="geometry" />
        </mxCell>
        <mxCell id="MH7dQqmpBozbEW8p3FuK-38" value="&lt;span style=&quot;font-size: 9px;&quot;&gt;Database&lt;br&gt;&lt;/span&gt;" style="text;html=1;strokeColor=none;fillColor=none;align=center;verticalAlign=middle;whiteSpace=wrap;rounded=0;fontSize=9;" vertex="1" parent="1">
          <mxGeometry x="220" y="345" width="53.53" height="10" as="geometry" />
        </mxCell>
        <mxCell id="MH7dQqmpBozbEW8p3FuK-39" value="RAG&lt;span style=&quot;font-size: 9px;&quot;&gt;&lt;br style=&quot;font-size: 9px;&quot;&gt;&lt;/span&gt;" style="text;html=1;strokeColor=none;fillColor=none;align=center;verticalAlign=middle;whiteSpace=wrap;rounded=0;fontStyle=1;fontSize=9;" vertex="1" parent="1">
          <mxGeometry x="220.87" y="294.1" width="27.5" height="10" as="geometry" />
        </mxCell>
        <mxCell id="MH7dQqmpBozbEW8p3FuK-44" value="Fine-tuned&lt;span style=&quot;font-size: 9px;&quot;&gt;&lt;br style=&quot;font-size: 9px;&quot;&gt;&lt;/span&gt;" style="text;html=1;strokeColor=none;fillColor=none;align=center;verticalAlign=middle;whiteSpace=wrap;rounded=0;fontStyle=1;fontSize=9;" vertex="1" parent="1">
          <mxGeometry x="411.36" y="220" width="59.56" height="10" as="geometry" />
        </mxCell>
        <mxCell id="MH7dQqmpBozbEW8p3FuK-45" value="Fine-tuned&lt;span style=&quot;font-size: 9px;&quot;&gt;&lt;br style=&quot;font-size: 9px;&quot;&gt;&lt;/span&gt;" style="text;html=1;strokeColor=none;fillColor=none;align=center;verticalAlign=middle;whiteSpace=wrap;rounded=0;fontStyle=1;fontSize=9;" vertex="1" parent="1">
          <mxGeometry x="411.36" y="400" width="59.56" height="10" as="geometry" />
        </mxCell>
      </root>
    </mxGraphModel>
  </diagram>
</mxfile>
